<?xml version="1.0" encoding="UTF-8"?>
<svg version="1.1" xmlns="http://www.w3.org/2000/svg" width="545" height="180">
<path d="M0 0 C179.85 0 359.7 0 545 0 C545 59.4 545 118.8 545 180 C365.15 180 185.3 180 0 180 C0 120.6 0 61.2 0 0 Z " fill="#FEFEFE" transform="translate(0,0)"/>
<path d="M0 0 C0.90280701 -0.00571014 1.80561401 -0.01142029 2.73577881 -0.01730347 C3.72904175 -0.01842133 4.72230469 -0.01953918 5.7456665 -0.02069092 C7.31172638 -0.02813828 7.31172638 -0.02813828 8.90942383 -0.03573608 C12.37600353 -0.05038459 15.84253745 -0.05716469 19.30914307 -0.06268311 C21.71329754 -0.06843297 24.117452 -0.07419072 26.52160645 -0.07995605 C31.56895156 -0.09047412 36.61628071 -0.09631131 41.66363525 -0.09979248 C48.13126575 -0.10527456 54.59868544 -0.12929328 61.06624985 -0.15776443 C66.03508113 -0.17638993 71.00386167 -0.18159641 75.97272491 -0.18312836 C78.35694784 -0.18615632 80.74116985 -0.19418964 83.12535858 -0.20731354 C86.46249906 -0.22436944 89.79912511 -0.22249447 93.1362915 -0.21600342 C94.12145752 -0.2252182 95.10662354 -0.23443298 96.12164307 -0.243927 C101.37999897 -0.21189 105.2165377 0.07557842 109.69976807 3.14044189 C112.33672837 6.06806976 113.07528207 7.9185982 113.08071899 11.83976746 C113.08917847 12.78042557 113.09763794 13.72108368 113.10635376 14.69024658 C113.10028107 15.71529297 113.09420837 16.74033936 113.08795166 17.79644775 C113.09320862 18.8814003 113.09846558 19.96635284 113.10388184 21.08418274 C113.11709775 24.67469634 113.10833717 28.26476744 113.09820557 31.85528564 C113.10022598 34.34865911 113.10313715 36.842032 113.10690308 39.33540344 C113.11132871 44.56334963 113.10517393 49.79118056 113.09088135 55.019104 C113.07636728 60.38995509 113.07635419 65.76055764 113.09088135 71.13140869 C113.10826354 77.61346974 113.11100081 84.0953486 113.10121536 90.577425 C113.09921316 93.04898687 113.10167331 95.52055648 113.10865402 97.9921093 C113.11626874 101.44662931 113.10466276 104.90056503 113.08795166 108.3550415 C113.09402435 109.37806366 113.10009705 110.40108582 113.10635376 111.45510864 C113.02504974 120.52287869 113.02504974 120.52287869 109.69976807 124.14044189 C104.50254903 127.80175805 99.40533596 127.57288159 93.29156494 127.54449463 C91.73925926 127.55478951 91.73925926 127.55478951 90.15559387 127.56529236 C86.74309476 127.58355749 83.33105545 127.5797235 79.91851807 127.57403564 C77.54249929 127.57859719 75.16648184 127.58390268 72.79046631 127.58992004 C67.81405268 127.59885032 62.83779955 127.59642839 57.86138916 127.58648682 C51.4856795 127.57499062 45.11052314 127.59521965 38.73488617 127.62440395 C33.8295134 127.64275203 28.9242736 127.64247634 24.01887512 127.63676643 C21.66814904 127.63661309 19.31741402 127.64266847 16.96672058 127.65505791 C13.68011765 127.66994117 10.39454205 127.65930983 7.10797119 127.64215088 C5.65367455 127.65665283 5.65367455 127.65665283 4.16999817 127.67144775 C-1.4446475 127.61009014 -4.99613976 127.11651867 -9.30023193 123.14044189 C-13.01031135 117.94204143 -12.74448991 112.70917633 -12.73602295 106.56451416 C-12.7511367 104.98535721 -12.7511367 104.98535721 -12.76655579 103.3742981 C-12.79500243 99.90170615 -12.80091044 96.42954928 -12.80413818 92.95684814 C-12.81378038 90.53838422 -12.82387294 88.11992205 -12.83439636 85.70146179 C-12.85234868 80.63510073 -12.85791818 75.56889306 -12.85614014 70.50250244 C-12.85583508 64.0145941 -12.89681843 57.52766935 -12.94845676 51.03999424 C-12.98182946 46.0462137 -12.98789745 41.05267085 -12.98631096 36.05879021 C-12.98984839 33.6669977 -13.00310301 31.27519887 -13.02630806 28.88351631 C-13.05574283 25.53689935 -13.04706556 22.19241635 -13.0289917 18.84576416 C-13.04585022 17.86112686 -13.06270874 16.87648956 -13.08007812 15.86201477 C-12.99834922 9.89904214 -11.9770165 6.70210563 -7.78242397 2.39298916 C-5.15327932 0.17119343 -3.35628928 0.01268928 0 0 Z " fill="#41A8C4" transform="translate(35.30023193359375,25.85955810546875)"/>
<path d="M0 0 C0.97168625 -0.0159874 1.9433725 -0.03197479 2.94450378 -0.04844666 C3.98931412 -0.05380936 5.03412445 -0.05917206 6.1105957 -0.06469727 C7.1933931 -0.07372574 8.27619049 -0.08275421 9.39179993 -0.09205627 C11.6840234 -0.10656186 13.9762883 -0.11544627 16.26855469 -0.11914062 C19.7563369 -0.13100136 23.24232929 -0.18015646 26.72973633 -0.23071289 C28.96084752 -0.24018165 31.19196954 -0.24741452 33.4230957 -0.25219727 C34.97512947 -0.28149574 34.97512947 -0.28149574 36.55851746 -0.31138611 C43.42148382 -0.26914461 48.64448132 0.96245677 54.09887695 5.30639648 C57.65957808 9.93236955 58.68051044 14.48664822 58.44262695 20.27514648 C57.97580959 23.03361271 56.56248061 24.95190364 55.09887695 27.30639648 C55.26998946 30.3332518 55.26998946 30.3332518 56.09887695 33.30639648 C56.28450195 34.25514648 56.47012695 35.20389648 56.66137695 36.18139648 C56.87793945 37.23327148 56.87793945 37.23327148 57.09887695 38.30639648 C53.17383728 38.54670504 50.61453343 38.55684057 47.03857422 36.82006836 C42.19133543 34.64728729 37.35764943 34.8842615 32.1262207 34.90014648 C30.56430748 34.88389221 30.56430748 34.88389221 28.97084045 34.86730957 C24.53887264 34.82162624 20.10696569 34.80997315 15.67480469 34.79516602 C12.42923301 34.77945127 9.18414626 34.74645153 5.9387207 34.71264648 C4.94170639 34.71566772 3.94469208 34.71868896 2.91746521 34.72180176 C-3.16264267 34.65625824 -7.81316683 34.11703624 -12.51049805 29.84155273 C-16.36765944 24.86158751 -18.39888254 21.8886865 -18.2175293 15.39624023 C-17.49207782 10.60467803 -14.92980968 7.25793162 -11.40112305 3.99389648 C-7.46845408 1.33934493 -4.79107873 0.05981594 0 0 Z " fill="#47ABC6" transform="translate(64.901123046875,49.693603515625)"/>
<path d="M0 0 C1.66179543 -0.00218285 1.66179543 -0.00218285 3.35716248 -0.00440979 C5.69117879 -0.00275504 8.02520649 0.0087585 10.35913086 0.02954102 C13.92543992 0.05852748 17.49026403 0.05013342 21.05664062 0.03710938 C23.32943428 0.04334641 25.60222327 0.05173707 27.875 0.0625 C28.93763565 0.05956436 30.0002713 0.05662872 31.09510803 0.05360413 C38.1960919 0.14385372 42.61533266 1.11611827 48.12109375 5.87109375 C51.75381012 10.10926285 52.89696286 13.71944827 52.7578125 19.37109375 C51.87922042 24.19891284 48.88664153 28.07526771 45.37109375 31.37109375 C41.38068809 33.61569693 37.98975185 34.74401388 33.40063477 34.76733398 C31.9587252 34.78261391 31.9587252 34.78261391 30.48768616 34.79820251 C29.46049973 34.80034256 28.43331329 34.8024826 27.375 34.8046875 C25.18554416 34.82984296 22.9960911 34.85524105 20.80664062 34.88085938 C17.36581107 34.90961283 13.92502962 34.93364042 10.48413086 34.95239258 C7.15583787 34.97406518 3.82810038 35.01350059 0.5 35.0546875 C-0.5251622 35.05480331 -1.5503244 35.05491913 -2.60655212 35.05503845 C-8.12868748 35.13141402 -11.76603005 35.62688824 -16.62890625 38.49609375 C-20.00390625 38.68359375 -20.00390625 38.68359375 -22.62890625 38.49609375 C-22.12016274 35.44363271 -21.6154463 32.44113229 -20.87890625 29.43359375 C-20.33102088 26.46121449 -20.33102088 26.46121449 -22.06640625 24.18359375 C-24.34327669 20.2673766 -24.40313518 16.92025906 -23.62890625 12.49609375 C-21.56420931 7.28388102 -18.7910327 4.10676003 -13.84281921 1.35575867 C-9.39230311 -0.37238179 -4.7121666 -0.04991119 0 0 Z " fill="#47ABC6" transform="translate(71.62890625,89.50390625)"/>
<path d="M0 0 C2.64 0 5.28 0 8 0 C8 20.46 8 40.92 8 62 C5.36 62 2.72 62 0 62 C-0.33 60.68 -0.66 59.36 -1 58 C-2.11375 58.66 -3.2275 59.32 -4.375 60 C-9.29275209 62.41117298 -13.60523553 63.08395577 -19 62 C-24.59211058 59.60213099 -29.03109392 56.10017169 -31.41015625 50.41015625 C-32.97787129 44.00432723 -33.19572429 37.48002074 -30.3125 31.5 C-29.549375 30.675 -28.78625 29.85 -28 29 C-27.21625 28.0925 -26.4325 27.185 -25.625 26.25 C-21.61259905 22.81079918 -18.31540987 22.14851402 -13.125 21.5625 C-9 22 -9 22 -1 27 C-0.67 18.09 -0.34 9.18 0 0 Z " fill="#30618B" transform="translate(205,58)"/>
<path d="M0 0 C2.31 0 4.62 0 7 0 C7 19.8 7 39.6 7 60 C4.69 60 2.38 60 0 60 C-0.33 58.68 -0.66 57.36 -1 56 C-1.763125 56.639375 -2.52625 57.27875 -3.3125 57.9375 C-7.54403995 61.18496089 -11.19470092 61.40047386 -16.36328125 61.34765625 C-21.9567476 60.61014735 -25.69931808 57.40073438 -29.4375 53.375 C-33.37422627 47.39117607 -32.7581843 39.87372744 -32 33 C-29.76817026 27.89974479 -26.09800773 24.28068767 -21 22 C-17.07575924 20.51149488 -13.13938382 20.63476025 -9 21 C-6.36 22.65 -3.72 24.3 -1 26 C-0.67 17.42 -0.34 8.84 0 0 Z " fill="#285A86" transform="translate(433,59)"/>
<path d="M0 0 C4.81928133 2.53863642 7.66056494 5.84136064 10.26171875 10.5234375 C11.01171875 13.2734375 11.01171875 13.2734375 11.01171875 22.2734375 C1.11171875 22.2734375 -8.78828125 22.2734375 -18.98828125 22.2734375 C-16.75517342 28.90005369 -16.75517342 28.90005369 -13.73828125 31.2109375 C-8.96947717 33.05342999 -5.40086811 32.89823553 -0.73828125 30.8359375 C0.16921875 30.3203125 1.07671875 29.8046875 2.01171875 29.2734375 C3.00171875 28.9434375 3.99171875 28.6134375 5.01171875 28.2734375 C6.33171875 29.5934375 7.65171875 30.9134375 9.01171875 32.2734375 C5.06031326 36.85706787 1.02515423 38.93771247 -4.8984375 39.59765625 C-11.09503545 39.82033449 -15.2511859 39.66391612 -19.98828125 35.2734375 C-24.84544049 30.19549829 -26.99215073 25.87808566 -27.36328125 18.8984375 C-27.20886866 12.79399302 -24.96111503 8.24627128 -20.67578125 3.9609375 C-14.19368846 -0.10921379 -7.51549347 -2.74632964 0 0 Z " fill="#2B5D88" transform="translate(475.98828125,80.7265625)"/>
<path d="M0 0 C3.581638 2.95874443 5.89075708 5.46218804 7 10 C7 13.3 7 16.6 7 20 C-2.9 20 -12.8 20 -23 20 C-20.84184529 26.92966736 -20.84184529 26.92966736 -16.75 28.9375 C-12.82892044 30.04847254 -10.0427925 30.52406569 -6 30 C-4.30678061 28.70055256 -2.63604196 27.37073786 -1 26 C1.43138705 26.2084046 2.82850911 26.91425455 5 28 C4.9375 29.75 4.9375 29.75 4 32 C-2.71007947 36.95062419 -9.79976387 38.09128618 -18 37 C-23.99664261 34.20929192 -28.29694075 29.25764813 -30.75 23.125 C-31.52259588 16.55793498 -31.39119378 11.82861432 -28 6 C-19.83118139 -2.69926138 -11.05099552 -5.82731066 0 0 Z " fill="#2B5D88" transform="translate(252,83)"/>
<path d="M0 0 C1.66179543 -0.00218285 1.66179543 -0.00218285 3.35716248 -0.00440979 C5.69117879 -0.00275504 8.02520649 0.0087585 10.35913086 0.02954102 C13.92543992 0.05852748 17.49026403 0.05013342 21.05664062 0.03710938 C23.32943428 0.04334641 25.60222327 0.05173707 27.875 0.0625 C28.93763565 0.05956436 30.0002713 0.05662872 31.09510803 0.05360413 C38.1960919 0.14385372 42.61533266 1.11611827 48.12109375 5.87109375 C51.75381012 10.10926285 52.89696286 13.71944827 52.7578125 19.37109375 C51.87922042 24.19891284 48.88664153 28.07526771 45.37109375 31.37109375 C41.38068809 33.61569693 37.98975185 34.74401388 33.40063477 34.76733398 C31.9587252 34.78261391 31.9587252 34.78261391 30.48768616 34.79820251 C29.46049973 34.80034256 28.43331329 34.8024826 27.375 34.8046875 C25.18554416 34.82984296 22.9960911 34.85524105 20.80664062 34.88085938 C17.36581107 34.90961283 13.92502962 34.93364042 10.48413086 34.95239258 C7.15583787 34.97406518 3.82810038 35.01350059 0.5 35.0546875 C-0.5251622 35.05480331 -1.5503244 35.05491913 -2.60655212 35.05503845 C-8.12868748 35.13141402 -11.76603005 35.62688824 -16.62890625 38.49609375 C-20.00390625 38.68359375 -20.00390625 38.68359375 -22.62890625 38.49609375 C-22.12016274 35.44363271 -21.6154463 32.44113229 -20.87890625 29.43359375 C-20.33102088 26.46121449 -20.33102088 26.46121449 -22.06640625 24.18359375 C-24.34327669 20.2673766 -24.40313518 16.92025906 -23.62890625 12.49609375 C-21.56420931 7.28388102 -18.7910327 4.10676003 -13.84281921 1.35575867 C-9.39230311 -0.37238179 -4.7121666 -0.04991119 0 0 Z M-19.62890625 10.49609375 C-21.08653139 14.01868785 -20.89253212 17.73942512 -20.62890625 21.49609375 C-19.88640625 22.70265625 -19.88640625 22.70265625 -19.12890625 23.93359375 C-16.98822187 27.59059623 -17.41561756 30.30141614 -17.62890625 34.49609375 C-15.74231751 34.53134507 -15.74231751 34.53134507 -13.62890625 33.49609375 C-11.6205013 30.79560331 -9.62890625 27.94482642 -9.62890625 24.49609375 C-6.85748908 24.41519833 -4.08842806 24.35565313 -1.31640625 24.30859375 C-0.53072266 24.28345703 0.25496094 24.25832031 1.06445312 24.23242188 C1.82177734 24.22275391 2.57910156 24.21308594 3.359375 24.203125 C4.40411987 24.17955933 4.40411987 24.17955933 5.4699707 24.15551758 C8.00462788 24.60958805 8.82887084 25.46017581 10.37109375 27.49609375 C11.05859375 29.68359375 11.05859375 29.68359375 11.37109375 31.49609375 C15.55846043 31.58369556 19.74558906 31.6366881 23.93359375 31.68359375 C25.11501953 31.70873047 26.29644531 31.73386719 27.51367188 31.75976562 C37.7078942 31.90631622 37.7078942 31.90631622 46.18359375 26.76953125 C49.0117089 22.24826821 50.04964198 18.92351687 49.0859375 13.609375 C47.69358051 9.4931721 45.24523289 6.64504814 41.50668335 4.35310364 C39.03389993 3.36077822 37.17524607 3.23597101 34.51416016 3.22143555 C33.55281158 3.21190353 32.59146301 3.20237152 31.60098267 3.19255066 C30.05246109 3.19391777 30.05246109 3.19391777 28.47265625 3.1953125 C27.40493988 3.19102737 26.33722351 3.18674225 25.2371521 3.18232727 C22.97939767 3.17658657 20.72162475 3.17608179 18.46386719 3.18041992 C15.01595339 3.18357557 11.56890121 3.16013164 8.12109375 3.13476562 C5.92578233 3.13249213 3.73046861 3.13178937 1.53515625 3.1328125 C0.50685699 3.12360275 -0.52144226 3.11439301 -1.5809021 3.10490417 C-9.12357594 3.15345643 -14.63712155 4.39502356 -19.62890625 10.49609375 Z " fill="#F2F9FB" transform="translate(71.62890625,89.50390625)"/>
<path d="M0 0 C0.97168625 -0.0159874 1.9433725 -0.03197479 2.94450378 -0.04844666 C3.98931412 -0.05380936 5.03412445 -0.05917206 6.1105957 -0.06469727 C7.1933931 -0.07372574 8.27619049 -0.08275421 9.39179993 -0.09205627 C11.6840234 -0.10656186 13.9762883 -0.11544627 16.26855469 -0.11914062 C19.7563369 -0.13100136 23.24232929 -0.18015646 26.72973633 -0.23071289 C28.96084752 -0.24018165 31.19196954 -0.24741452 33.4230957 -0.25219727 C34.97512947 -0.28149574 34.97512947 -0.28149574 36.55851746 -0.31138611 C43.42148382 -0.26914461 48.64448132 0.96245677 54.09887695 5.30639648 C57.65957808 9.93236955 58.68051044 14.48664822 58.44262695 20.27514648 C57.97580959 23.03361271 56.56248061 24.95190364 55.09887695 27.30639648 C55.26998946 30.3332518 55.26998946 30.3332518 56.09887695 33.30639648 C56.28450195 34.25514648 56.47012695 35.20389648 56.66137695 36.18139648 C56.87793945 37.23327148 56.87793945 37.23327148 57.09887695 38.30639648 C53.17383728 38.54670504 50.61453343 38.55684057 47.03857422 36.82006836 C42.19133543 34.64728729 37.35764943 34.8842615 32.1262207 34.90014648 C30.56430748 34.88389221 30.56430748 34.88389221 28.97084045 34.86730957 C24.53887264 34.82162624 20.10696569 34.80997315 15.67480469 34.79516602 C12.42923301 34.77945127 9.18414626 34.74645153 5.9387207 34.71264648 C4.94170639 34.71566772 3.94469208 34.71868896 2.91746521 34.72180176 C-3.16264267 34.65625824 -7.81316683 34.11703624 -12.51049805 29.84155273 C-16.36765944 24.86158751 -18.39888254 21.8886865 -18.2175293 15.39624023 C-17.49207782 10.60467803 -14.92980968 7.25793162 -11.40112305 3.99389648 C-7.46845408 1.33934493 -4.79107873 0.05981594 0 0 Z M-13.27612305 10.11889648 C-15.23760618 13.96642109 -15.50055657 16.03543261 -14.90112305 20.30639648 C-13.20350294 25.08785903 -10.80081778 28.04103368 -6.24853516 30.51464844 C-1.03577473 32.2728369 4.60476372 31.7045055 10.03637695 31.55639648 C11.29256836 31.53834961 12.54875977 31.52030273 13.84301758 31.50170898 C16.92909612 31.45477243 20.01358476 31.38912062 23.09887695 31.30639648 C23.38762695 30.52264648 23.67637695 29.73889648 23.97387695 28.93139648 C25.09887695 26.30639648 25.09887695 26.30639648 27.09887695 24.30639648 C30.00823275 24.16121905 32.81882296 24.12008853 35.72387695 24.18139648 C36.52567383 24.19041992 37.3274707 24.19944336 38.15356445 24.20874023 C40.13546218 24.23233425 42.11720676 24.26820584 44.09887695 24.30639648 C44.24583008 24.93288086 44.3927832 25.55936523 44.54418945 26.20483398 C45.2327073 28.71357141 45.93601504 30.97641309 47.09887695 33.30639648 C50.1277254 34.98676159 50.1277254 34.98676159 53.09887695 35.30639648 C52.51106445 33.45014648 52.51106445 33.45014648 51.91137695 31.55639648 C51.2434082 29.44702148 51.2434082 29.44702148 51.09887695 27.30639648 C52.06171383 25.94598371 53.06507917 24.61369902 54.09887695 23.30639648 C55.42663064 18.55987581 55.82905718 13.86754328 53.59887695 9.36889648 C50.2178753 5.22716946 46.8485362 3.62130245 41.62203979 3.0227356 C38.71298745 2.8940078 35.8193621 2.86439624 32.9074707 2.87280273 C31.84399918 2.86756088 30.78052765 2.86231903 29.68482971 2.85691833 C27.44500601 2.85051693 25.2051486 2.85181064 22.96533203 2.86035156 C19.5437438 2.86887813 16.12381688 2.84004539 12.70239258 2.80834961 C10.52075245 2.8067378 8.33910938 2.80731474 6.1574707 2.81030273 C5.13858261 2.79906876 4.11969452 2.78783478 3.06993103 2.77626038 C-4.32435199 2.84866914 -8.36530095 4.30344926 -13.27612305 10.11889648 Z " fill="#F4FAFB" transform="translate(64.901123046875,49.693603515625)"/>
<path d="M0 0 C4.02467869 2.12210331 6.41624078 3.72884189 8 8 C8.22705078 11.20800781 8.22705078 11.20800781 8.1953125 14.953125 C8.1924826 15.61334656 8.18965271 16.27356812 8.18673706 16.95379639 C8.17558415 19.05271897 8.15048946 21.15120742 8.125 23.25 C8.11496384 24.67707715 8.1058391 26.10416102 8.09765625 27.53125 C8.07566111 31.02097328 8.04116536 34.51044423 8 38 C5.69 38 3.38 38 1 38 C0.98018066 37.19780029 0.96036133 36.39560059 0.93994141 35.5690918 C0.84480505 31.94155823 0.7350792 28.31460955 0.625 24.6875 C0.5940625 23.42486328 0.563125 22.16222656 0.53125 20.86132812 C0.49257813 19.65283203 0.45390625 18.44433594 0.4140625 17.19921875 C0.3826416 16.08377686 0.3512207 14.96833496 0.31884766 13.8190918 C0.194751 10.79631214 0.194751 10.79631214 -2 8 C-6.86712793 6.96274323 -10.58815304 6.2750357 -15 9 C-17.0978412 12.25179267 -17.29708738 15.03818791 -17.4140625 18.859375 C-17.45273437 19.97441406 -17.49140625 21.08945313 -17.53125 22.23828125 C-17.5621875 23.39714844 -17.593125 24.55601563 -17.625 25.75 C-17.68300781 27.51150391 -17.68300781 27.51150391 -17.7421875 29.30859375 C-17.8363982 32.20557268 -17.92201602 35.10254626 -18 38 C-20.31 38 -22.62 38 -25 38 C-25 25.46 -25 12.92 -25 0 C-22.69 0 -20.38 0 -18 0 C-17.67 1.32 -17.34 2.64 -17 4 C-16.236875 3.360625 -15.47375 2.72125 -14.6875 2.0625 C-9.8303718 -1.6650635 -5.73208787 -1.27162359 0 0 Z " fill="#285B87" transform="translate(383,81)"/>
<path d="M0 0 C2.64 0 5.28 0 8 0 C11.77066466 8.95949967 15.40917575 17.96741116 19 27 C23.08898242 18.16779798 26.51237213 9.08154786 30 0 C32.64 0 35.28 0 38 0 C35.86358225 6.5905617 33.52424647 13.08693452 31.0625 19.5625 C30.72798828 20.45646484 30.39347656 21.35042969 30.04882812 22.27148438 C27.98884747 27.69729084 25.68426348 32.85366039 23 38 C20.36 38 17.72 38 15 38 C11.3084953 30.07543741 7.92485993 22.05727833 4.6875 13.9375 C4.0059082 12.24850586 4.0059082 12.24850586 3.31054688 10.52539062 C2.88193359 9.45353516 2.45332031 8.38167969 2.01171875 7.27734375 C1.43103638 5.82702759 1.43103638 5.82702759 0.83862305 4.34741211 C0 2 0 2 0 0 Z " fill="#2C5D89" transform="translate(264,81)"/>
<path d="M0 0 C3.4480321 1.23608698 5.41819999 2.36001999 7.875 5.0625 C9.53987148 9.40966441 9.67624751 13.40592726 9 18 C7.00342873 21.85544798 5.60292362 23.59805092 2 26 C-3.34572552 26.78613611 -7.6312017 27.00564773 -12.0625 23.75 C-15.27955934 19.18385125 -16.55333882 15.91449877 -16.4609375 10.32421875 C-15.65549538 6.26287923 -13.05462619 3.65894922 -10 1 C-6.79788792 -0.60105604 -3.48253365 -0.35668408 0 0 Z " fill="#F9FBFC" transform="translate(424,87)"/>
<path d="M0 0 C3.41111881 2.77153404 5.76496698 4.94513992 6.2734375 9.390625 C6.58136511 18.05997149 6.58136511 18.05997149 3.625 21.625 C-0.62386359 25.46920991 -3.70320491 25.39890715 -9.296875 25.34765625 C-12 25 -12 25 -15.0625 22.8125 C-18.50003726 17.82252655 -19.64465512 14.12422366 -19 8 C-14.82562225 0.62526597 -14.82562225 0.62526597 -11.15234375 -0.6328125 C-7.33307348 -1.28437585 -3.73974198 -0.9932648 0 0 Z " fill="#FAFBFC" transform="translate(199,88)"/>
<path d="M0 0 C2.31 0 4.62 0 7 0 C7 3.63 7 7.26 7 11 C10.63 11 14.26 11 18 11 C18 12.98 18 14.96 18 17 C14.37 17 10.74 17 7 17 C7.14082687 20.58359451 7.28745307 24.16678982 7.4375 27.75 C7.47681641 28.76578125 7.51613281 29.7815625 7.55664062 30.828125 C7.61948242 32.29765625 7.61948242 32.29765625 7.68359375 33.796875 C7.72025146 34.69760742 7.75690918 35.59833984 7.79467773 36.52636719 C7.95650925 39.28349101 7.95650925 39.28349101 9 43 C11.97 43 14.94 43 18 43 C18 44.98 18 46.96 18 49 C14.28546768 50.85726616 10.04420575 50.58501089 6 50 C3.17575712 47.80977082 1.58491397 46.16982793 0 43 C-0.084915 41.1136088 -0.107193 39.22421485 -0.09765625 37.3359375 C-0.09443359 36.21445313 -0.09121094 35.09296875 -0.08789062 33.9375 C-0.07951172 32.761875 -0.07113281 31.58625 -0.0625 30.375 C-0.05798828 29.19164063 -0.05347656 28.00828125 -0.04882812 26.7890625 C-0.03701467 23.85932493 -0.02054258 20.92968728 0 18 C-2.64 18 -5.28 18 -8 18 C-8 15.69 -8 13.38 -8 11 C-5.36 11 -2.72 11 0 11 C0 7.37 0 3.74 0 0 Z " fill="#2E5F8A" transform="translate(311,70)"/>
<path d="M0 0 C0 2.97 0 5.94 0 9 C-1.85625 8.9690625 -1.85625 8.9690625 -3.75 8.9375 C-8.00586309 8.82554799 -8.00586309 8.82554799 -12 10 C-13.78383043 13.63527314 -14.28498815 16.71546403 -14.4140625 20.73828125 C-14.45273437 21.80498047 -14.49140625 22.87167969 -14.53125 23.97070312 C-14.57765625 25.62489258 -14.57765625 25.62489258 -14.625 27.3125 C-14.66367187 28.43462891 -14.70234375 29.55675781 -14.7421875 30.71289062 C-14.83622011 33.47509852 -14.92187341 36.237304 -15 39 C-17.31 39 -19.62 39 -22 39 C-22 26.46 -22 13.92 -22 1 C-19.69 1 -17.38 1 -15 1 C-14.67 2.32 -14.34 3.64 -14 5 C-13.49210937 4.6390625 -12.98421875 4.278125 -12.4609375 3.90625 C-8.16783762 1.01202536 -5.36584077 -0.6707301 0 0 Z " fill="#285B86" transform="translate(518,80)"/>
<path d="M0 0 C2.31 0 4.62 0 7 0 C7 12.54 7 25.08 7 38 C4.69 38 2.38 38 0 38 C0 25.46 0 12.92 0 0 Z " fill="#245884" transform="translate(339,81)"/>
<path d="M0 0 C2.73698148 1.35969958 3.88530966 2.62742059 6 5 C6.33 6.98 6.66 8.96 7 11 C-0.59 11 -8.18 11 -16 11 C-14.91910497 5.59552487 -13.98080159 4.49533798 -10 1 C-6.76247585 -0.61876208 -3.49936966 -0.57132566 0 0 Z " fill="#F7F9FA" transform="translate(245,86)"/>
<path d="M0 0 C4.34205109 3.25653832 4.90810277 4.54051384 6 10 C-1.59 10 -9.18 10 -17 10 C-15.91910497 4.59552487 -14.98080159 3.49533798 -11 0 C-7.48494973 -1.75752514 -3.71920044 -0.93782947 0 0 Z " fill="#F9FAFB" transform="translate(474,87)"/>
<path d="M0 0 C3.37013879 0.67402776 4.51677007 1.7087875 6.5 4.5 C7.10975382 8.15852292 6.94543026 9.80512879 4.9375 12.9375 C2.5 14.5 2.5 14.5 -1.125 14.4375 C-4.5 13.5 -4.5 13.5 -6.5 10.5 C-6.96649698 6.84577364 -6.96996298 5.16142938 -4.8125 2.125 C-2.5 0.5 -2.5 0.5 0 0 Z " fill="#F8FCFD" transform="translate(71.5,95.5)"/>
<path d="M0 0 C1.9375 1.0625 1.9375 1.0625 3 3 C3.36528977 6.4093712 3.6140629 8.88023824 1.9375 11.9375 C-1.11976176 13.6140629 -3.5906288 13.36528977 -7 13 C-8.9375 11.9375 -8.9375 11.9375 -10 10 C-10.36528977 6.5906288 -10.6140629 4.11976176 -8.9375 1.0625 C-5.88023824 -0.6140629 -3.4093712 -0.36528977 0 0 Z " fill="#FAFCFD" transform="translate(103,57)"/>
<path d="M0 0 C0.78375 0.04125 1.5675 0.0825 2.375 0.125 C2.375 0.785 2.375 1.445 2.375 2.125 C3.035 2.125 3.695 2.125 4.375 2.125 C5.29554342 5.13768757 5.65361489 6.55229162 4.25 9.4375 C2.375 11.125 2.375 11.125 -0.125 11.625 C-2.625 11.125 -2.625 11.125 -4.5 9.4375 C-5.92624388 6.50577646 -5.66730389 5.17173446 -4.625 2.125 C-2.625 0.125 -2.625 0.125 0 0 Z " fill="#37668F" transform="translate(342.625,61.875)"/>
<path d="M0 0 C8.91 0 17.82 0 27 0 C27 0.99 27 1.98 27 3 C18.09 3 9.18 3 0 3 C0 2.01 0 1.02 0 0 Z " fill="#F9FCFD" transform="translate(86,106)"/>
<path d="M0 0 C8.91 0 17.82 0 27 0 C27 0.99 27 1.98 27 3 C18.09 3 9.18 3 0 3 C0 2.01 0 1.02 0 0 Z " fill="#F9FCFD" transform="translate(86,99)"/>
<path d="M0 0 C8.91 0 17.82 0 27 0 C27 0.99 27 1.98 27 3 C18.09 3 9.18 3 0 3 C0 2.01 0 1.02 0 0 Z " fill="#F4FAFB" transform="translate(58,66)"/>
<path d="M0 0 C8.91 0 17.82 0 27 0 C27 0.99 27 1.98 27 3 C18.09 3 9.18 3 0 3 C0 2.01 0 1.02 0 0 Z " fill="#E7F4F7" transform="translate(58,59)"/>
<path d="M0 0 C7.26 0 14.52 0 22 0 C22 0.99 22 1.98 22 3 C14.74 3 7.48 3 0 3 C0 2.01 0 1.02 0 0 Z " fill="#F8FCFC" transform="translate(63,73)"/>
<path d="M0 0 C7.26 0 14.52 0 22 0 C21.67 0.99 21.34 1.98 21 3 C14.07 3 7.14 3 0 3 C0 2.01 0 1.02 0 0 Z " fill="#E9F4F8" transform="translate(86,113)"/>
<path d="M0 0 C2 1 2 1 3 3 C1.576875 3.99 1.576875 3.99 0.125 5 C-3.73768583 8.16613593 -3.99838318 11.22305826 -5 16 C-6.55078125 17.7421875 -6.55078125 17.7421875 -8 19 C-8.65055683 12.75465439 -7.90383622 8.85705384 -4.38671875 3.62890625 C-3 2 -3 2 0 0 Z " fill="#E7F4F7" transform="translate(56,92)"/>
</svg>
